<?xml version='1.0' encoding='UTF-8'?>
<svg xmlns="http://www.w3.org/2000/svg" viewBox="70 120 720 125" preserveAspectRatio="xMidYMid meet" role="presentation" aria-hidden="true"><path fill-rule="nonzero" fill="rgb(0%, 0%, 0%)" fill-opacity="1" d="M 145.925781 166.421875 C 146.707031 168.15625 147.535156 169.683594 148.285156 171.457031 C 148.824219 173.464844 149.675781 175.363281 150.292969 177.339844 C 150.863281 180.519531 150.34375 183.777344 150.398438 186.988281 C 150.566406 189.480469 149.285156 191.816406 147.355469 193.347656 C 146 194.222656 144.382812 194.460938 142.890625 195.023438 C 134.628906 197.339844 130.3125 196.265625 123.859375 190.597656 C 122.625 188.648438 122.515625 186.1875 121.96875 183.984375 C 121.769531 182.199219 121.808594 179.625 121.675781 177.714844 C 121.523438 174.109375 120.0625 170.328125 122.492188 167.101562 C 124.023438 164.761719 126.691406 163.644531 128.980469 162.203125 C 129.230469 162.058594 129.484375 161.910156 129.738281 161.761719 C 130.175781 161.683594 130.609375 161.605469 131.050781 161.527344 C 135.34375 161.316406 139.585938 162.230469 143.84375 163.167969 C 144.125 164.453125 144.820312 165.640625 145.925781 166.421875 M 187.113281 184.769531 C 184.90625 173.503906 174.945312 167.503906 166.265625 161.441406 C 155.945312 153.707031 148.257812 149.402344 134.878906 152.320312 C 122.671875 149.644531 112.996094 154.175781 104.300781 162.796875 C 98.433594 167.238281 91.925781 170.773438 88.6875 177.769531 C 86.996094 181.035156 83.761719 185.265625 86.039062 188.929688 C 88.460938 191.699219 94.226562 187.71875 92.332031 184.3125 C 99.109375 172.109375 108.164062 167.019531 119.679688 163.945312 C 119.585938 164.066406 119.484375 164.179688 119.390625 164.304688 C 116.925781 167.363281 115.765625 171.050781 114.832031 174.8125 C 113.441406 179.835938 112.894531 184.851562 114.945312 189.933594 C 116.160156 193.210938 118.183594 196.335938 120.375 199.078125 C 123.28125 203.242188 127.054688 207.722656 132.535156 207.925781 C 137.113281 208.167969 140.78125 205.886719 144.265625 202.984375 C 146.277344 202.035156 147.945312 200.539062 149.332031 198.816406 C 153.671875 194.285156 156.988281 188.730469 157.539062 182.375 C 158.253906 178.574219 158.582031 174.671875 157.347656 170.933594 C 156.777344 168.933594 156.386719 166.84375 155.511719 164.949219 C 155.707031 164.953125 155.902344 164.964844 156.097656 164.960938 C 170.980469 165.632812 177.4375 182.0625 181.449219 194.289062 C 182.707031 198.871094 187.875 197.660156 188.457031 193.433594 C 188.894531 190.578125 188.03125 187.507812 187.113281 184.769531 " /><path fill-rule="nonzero" fill="rgb(0%, 0%, 0%)" fill-opacity="1" d="M 661.777344 170.59375 C 658.058594 171.066406 654.636719 170.414062 650.972656 169.5625 C 649.6875 169.402344 648.601562 168.46875 647.324219 168.210938 C 646.035156 167.960938 644.761719 167.652344 643.449219 167.53125 C 638.824219 166.636719 633.621094 167.4375 629.027344 168.714844 C 624.382812 169.347656 619.824219 170.59375 615.152344 170.960938 C 611.199219 171.097656 607.34375 170.039062 603.449219 169.582031 C 598.582031 169.191406 593.867188 167.839844 588.972656 167.695312 C 584.789062 167.523438 580.71875 168.589844 576.667969 169.507812 C 570.472656 171.132812 564.203125 169.847656 557.949219 169.304688 C 557.882812 168.972656 557.800781 168.640625 557.695312 168.304688 C 556.035156 165.316406 556.503906 162.179688 555.160156 159.167969 C 558.695312 155.234375 547.199219 153.414062 547.304688 158.761719 C 547.890625 162.238281 548.042969 165.746094 548.109375 169.257812 C 544.078125 169.222656 540.050781 169.015625 536.015625 168.894531 C 529.328125 168.335938 523.109375 171.113281 516.570312 171.800781 C 512.402344 171.976562 508.519531 170.425781 504.488281 169.671875 C 502.417969 169.332031 500.339844 169.125 498.261719 169.015625 C 498.203125 168.777344 498.140625 168.542969 498.066406 168.304688 C 496.410156 165.316406 496.875 162.179688 495.53125 159.167969 C 499.066406 155.234375 487.570312 153.414062 487.675781 158.761719 C 488.25 162.167969 488.40625 165.597656 488.472656 169.035156 C 485.78125 169.152344 483.09375 169.324219 480.410156 169.480469 C 471.757812 169.375 463.0625 168.421875 454.546875 170.492188 C 450.324219 171.210938 446.21875 172.59375 441.921875 172.867188 C 440.890625 172.9375 439.867188 172.902344 438.847656 172.820312 C 438.992188 171.324219 438.925781 169.820312 438.4375 168.304688 C 436.78125 165.316406 437.246094 162.179688 435.902344 159.167969 C 439.4375 155.234375 427.941406 153.414062 428.046875 158.761719 C 428.746094 162.902344 428.832031 167.082031 428.882812 171.269531 C 428.410156 171.210938 427.941406 171.152344 427.46875 171.117188 C 419.679688 170.078125 411.953125 171.382812 404.199219 171.972656 C 398.835938 172.078125 393.570312 170.773438 388.226562 170.996094 C 385.199219 171.136719 382.226562 171.632812 379.265625 172.214844 C 379.335938 170.917969 379.230469 169.617188 378.808594 168.304688 C 377.152344 165.316406 377.617188 162.179688 376.273438 159.167969 C 379.808594 155.234375 368.3125 153.414062 368.421875 158.761719 C 369.277344 163.863281 369.210938 169.019531 369.289062 174.179688 C 363.847656 175.199219 358.414062 173.726562 352.96875 173.550781 C 348.945312 173.367188 344.929688 173.054688 340.902344 173.371094 C 336.398438 173.695312 332.007812 174.808594 327.554688 175.488281 C 324.625 176.007812 321.726562 176.714844 318.785156 177.097656 C 319.492188 174.183594 320.132812 171.261719 319.179688 168.304688 C 317.523438 165.316406 317.988281 162.179688 316.644531 159.167969 C 320.183594 155.234375 308.683594 153.414062 308.792969 158.761719 C 309.792969 164.714844 309.535156 170.746094 309.722656 176.769531 C 307.890625 176.421875 306.074219 175.992188 304.246094 175.664062 C 299.574219 174.613281 294.75 174.25 289.984375 174.835938 C 286.992188 175.207031 284.03125 175.851562 281.011719 176.027344 C 276.195312 175.996094 271.4375 175.054688 266.617188 175.175781 C 260.390625 174.929688 254.800781 178.074219 248.730469 178.757812 C 243.683594 178.90625 238.039062 177.644531 232.941406 178.621094 C 230.144531 178.960938 227.3125 178.886719 224.519531 179.195312 C 222.65625 179.492188 220.828125 180 219.832031 181.730469 C 218.476562 183.894531 220.035156 186.835938 222.53125 186.96875 C 231.921875 187.660156 241.246094 185.523438 250.609375 185.085938 C 255.144531 184.789062 259.550781 185.878906 264.015625 186.402344 C 269.230469 187.015625 274.332031 185.753906 279.480469 185.25 C 283.003906 185.191406 286.390625 186.335938 289.863281 186.753906 C 296.875 187.96875 303.511719 185.402344 310.273438 184.007812 C 311.203125 187.316406 307.605469 192.28125 313.65625 194.226562 C 322.640625 194.542969 320.15625 187.898438 318.636719 183.445312 C 323.210938 183.835938 327.726562 185.039062 332.46875 184.835938 C 342.496094 185.59375 352.429688 183.933594 362.046875 181.167969 C 364.570312 180.449219 367.0625 180.34375 369.542969 180.542969 C 369.625 181.6875 369.738281 182.828125 369.894531 183.96875 C 370.863281 187.277344 367.210938 192.273438 373.285156 194.226562 C 383.351562 194.582031 379.023438 186.195312 377.777344 181.949219 C 380.804688 182.597656 383.84375 183.21875 386.921875 183.277344 C 391.320312 183.640625 395.546875 182.382812 399.898438 182.035156 C 403.839844 181.332031 407.824219 182 411.789062 182.113281 C 416.789062 182.328125 421.828125 182.171875 426.757812 181.289062 C 427.574219 181.152344 428.382812 180.988281 429.1875 180.816406 C 429.269531 181.867188 429.378906 182.917969 429.523438 183.96875 C 430.492188 187.277344 426.839844 192.273438 432.914062 194.226562 C 443.757812 194.605469 437.890625 184.839844 437.179688 181.039062 C 437.28125 180.410156 437.410156 179.777344 437.550781 179.144531 C 438.414062 179.027344 439.277344 178.933594 440.164062 178.886719 C 447.148438 178.789062 453.921875 181.339844 460.941406 180.921875 C 466.535156 180.855469 471.996094 179.652344 477.550781 179.183594 C 481.289062 179.273438 485.027344 179.808594 488.765625 180.058594 C 488.855469 181.363281 488.972656 182.667969 489.148438 183.96875 C 490.121094 187.277344 486.46875 192.273438 492.542969 194.226562 C 503.386719 194.605469 497.519531 184.839844 496.808594 181.039062 C 496.871094 180.648438 496.945312 180.257812 497.027344 179.863281 C 503 179.335938 508.882812 178.074219 514.863281 177.640625 C 522.015625 177.445312 528.863281 180.035156 536.011719 179.882812 C 540.144531 179.875 544.207031 179.070312 548.316406 178.746094 C 548.40625 180.488281 548.542969 182.230469 548.777344 183.96875 C 549.75 187.277344 546.097656 192.273438 552.167969 194.226562 C 563.015625 194.605469 557.148438 184.839844 556.4375 181.039062 C 556.546875 180.339844 556.695312 179.644531 556.855469 178.945312 C 557.246094 178.929688 557.636719 178.902344 558.03125 178.859375 C 562.273438 178.597656 566.511719 178.03125 570.769531 178.292969 C 574.917969 178.46875 578.886719 179.710938 582.878906 180.738281 C 589.394531 182.621094 596.050781 181.179688 602.332031 179.144531 C 608.628906 177.777344 615.039062 176.726562 621.476562 177.78125 C 627.027344 178.609375 632.417969 180.277344 637.957031 181.109375 C 641.011719 181.386719 643.160156 181.386719 646.464844 181.144531 C 647.796875 180.992188 648.988281 180.308594 650.34375 180.285156 C 652.214844 180.199219 654.203125 179.777344 656.070312 179.367188 C 658.042969 179.128906 660.011719 178.941406 661.988281 178.726562 C 662.800781 178.75 663.582031 178.960938 664.382812 178.6875 C 666.359375 177.972656 667.253906 175.765625 667.394531 173.800781 C 667.863281 170.308594 664.046875 167.460938 661.777344 170.59375 " /><path fill-rule="nonzero" fill="rgb(0%, 0%, 0%)" fill-opacity="1" d="M 758.605469 166.824219 C 752.953125 166.144531 747.296875 166.828125 741.625 167.007812 C 740.941406 167.097656 740.109375 167.128906 739.21875 167.164062 C 738.347656 165.714844 736.941406 164.636719 735.171875 164.769531 C 734.6875 164.746094 734.207031 164.734375 733.722656 164.722656 C 733.683594 164.5 733.65625 164.277344 733.609375 164.050781 C 731.953125 159.113281 732.421875 153.933594 731.074219 148.960938 C 734.613281 142.464844 723.117188 139.460938 723.222656 148.292969 C 723.800781 153.964844 723.957031 159.679688 724.023438 165.410156 C 720.050781 166.179688 715.867188 167.671875 711.957031 168.003906 C 709.304688 168.191406 706.648438 168.175781 703.992188 168.257812 C 702.425781 168.335938 700.585938 168.125 699.339844 169.257812 C 697.964844 170.449219 697.761719 173.117188 699.0625 174.453125 C 700.074219 175.667969 701.71875 175.703125 703.175781 175.492188 C 706.132812 175.035156 709.074219 174.582031 712.074219 174.84375 C 716.160156 175.167969 720.097656 176.40625 724.132812 176.988281 C 724.203125 181.300781 724.34375 185.613281 724.695312 189.914062 C 725.664062 195.378906 722.011719 203.632812 728.085938 206.855469 C 738.933594 207.488281 733.066406 191.359375 732.355469 185.082031 C 732.601562 182.503906 733.023438 179.929688 733.390625 177.355469 C 734.566406 177.316406 735.730469 177.207031 736.867188 176.9375 C 737.363281 176.738281 737.800781 176.460938 738.183594 176.121094 C 738.777344 176.1875 739.367188 176.253906 739.964844 176.28125 C 742.324219 176.289062 744.648438 175.765625 746.988281 175.441406 C 747.285156 175.460938 747.585938 175.472656 747.882812 175.496094 C 751.449219 175.984375 755.042969 175.644531 758.605469 175.402344 C 762.359375 174.367188 762.359375 167.859375 758.605469 166.824219 " /></svg>