<svg xmlns="http://www.w3.org/2000/svg" viewBox="104.2774 163.9278 67.242 115.785" role="img"><path d="M162.9884 276.7128 C161.4434 275.0658 160.8334 272.8678 159.6824 270.9688 C156.6704 266.6488 154.9574 261.7108 152.6134 257.0488 C150.2784 252.1788 149.0954 246.7918 146.4254 242.0668 C143.5444 236.7968 139.1004 232.5908 136.5904 227.0838 C134.4064 223.2448 133.3094 218.9388 131.4794 214.9468 C128.0554 209.8168 123.8134 205.1958 121.1794 199.5568 C119.8404 196.8588 119.5324 193.7768 118.3924 190.9968 C115.3594 185.7088 112.0374 180.5668 108.8864 175.3378 C107.7864 173.2558 106.2114 170.6488 107.2774 168.2748 C107.5584 167.7048 108.1094 167.0448 108.7814 166.9278 C111.0904 166.4528 112.3534 168.8048 113.5394 170.3588 C117.1714 174.0128 117.3884 179.4598 120.3374 183.4808 C124.3044 188.6428 128.7604 193.5308 132.0624 199.1538 C133.7204 202.1578 134.9394 205.3758 136.6184 208.3668 C139.1124 212.7688 142.8064 216.3538 145.1404 220.8538 C147.9234 226.4938 149.2274 232.6768 150.7374 238.7378 C151.9474 243.4308 155.0534 247.1278 157.8434 250.9548 C159.9574 253.9058 161.2024 256.0838 162.7554 258.9208 C164.9274 261.7568 166.7374 264.8458 167.9074 268.2328 C169.4194 270.6078 170.2854 273.4828 168.5194 276.0368 C167.2694 278.1408 164.3534 278.6888 162.8434 276.5278 C162.8434 276.5288 162.9884 276.7128 162.9884 276.7128 Z" fill="#111111" fill-rule="nonzero"/></svg>
